# xmcd
#
# Track frame offsets:
#	150
#	11173
#	25410
#	36952
#	48176
#	59839
#	76982
#	93291
#	111988
#	124700
#	135475
#	145160
#
# Disc length: 2093 seconds
#
# Revision: 2
# Processed by: cddbd v1.5.2PL0 Copyright (c) Steve Scherf et al.
# Submitted via: audiograbber 1.83.01
#
DISCID=a3082b0c
DTITLE=Various Artist - #1 Country Hits of the 70s (Madacy)
DYEAR=2006
DGENRE=Country
TTITLE0=Conway Twitty - Hello Darling
TTITLE1=Don Williams - Tulsa Time
TTITLE2=Freddy Fender - Before the Next Teardrop Falls
TTITLE3=Donna Fargo - The Happiest Girl in the Whole U.S.A.
TTITLE4=John Conlee - Backside of Thirty
TTITLE5=C.W. McCall - Convoy
TTITLE6=Cal Smith - Country Bumpkin
TTITLE7=Tom T. Hall - Old Dogs, Children and Watermelon Wine
TTITLE8=Tany Tucker - San Antonio Stroll
TTITLE9=The Kendalls - Heaven's Just a Sin Away
TTITLE10=Mel Tillis - I Aint' Never
TTITLE11=Loretta Lynn and Conway Twitty - After the Fire is Gone
EXTD=
EXTT0=
EXTT1=
EXTT2=
EXTT3=
EXTT4=
EXTT5=
EXTT6=
EXTT7=
EXTT8=
EXTT9=
EXTT10=
EXTT11=
PLAYORDER=
